<?xml version="1.0" encoding="UTF-8"?>
<svg xmlns="http://www.w3.org/2000/svg" width="912.00pt" height="864.00pt" viewBox="-158.178 -14.754 912.000 864.000">
  <title>kukkus nest — reversed-white</title>
  <desc></desc>
  <g>
    <path id="Waist_sash" d="M321.537 214.669 L322.966 215.621 L322.966 232.213 L309.243 234.711 C309.243 234.711 305.399 235.185 305.430 235.096 C305.461 235.007 295.553 236.585 295.553 236.585 L285.074 235.751 C285.074 235.751 278.525 235.632 278.525 235.483 C278.525 235.334 278.108 234.262 278.108 234.143 C278.108 234.024 277.989 219.437 277.989 219.348 C277.989 219.258 278.376 217.115 278.376 217.115 L281.859 217.621 L315.618 215.061 L321.537 214.669 Z" fill="#FFFFFF" fill-rule="evenodd"/>
    <path id="Gown_&_stand" d="M310.401 61.286 C314.204 65.090 312.239 71.509 309.639 75.364 C308.784 76.631 305.719 79.459 305.525 80.112 C305.000 81.880 305.697 84.834 305.434 86.775 C307.587 87.172 317.389 87.658 318.278 89.107 C318.562 89.568 317.960 94.066 318.030 95.403 C319.226 118.128 344.223 117.331 359.848 124.475 C367.660 128.047 365.082 133.449 362.411 139.796 C353.287 161.478 340.357 182.354 332.132 204.663 C318.964 240.380 339.087 251.211 357.393 276.644 C383.452 312.849 405.716 380.077 392.770 423.876 C384.779 450.914 362.888 472.547 337.461 483.767 C332.790 485.829 327.330 488.302 322.222 488.583 C342.180 469.793 366.963 454.575 378.649 428.649 C369.188 435.242 356.406 438.274 345.175 434.843 C343.973 434.476 339.648 432.237 339.011 432.578 C329.974 444.719 318.705 454.932 307.383 464.882 C307.325 498.203 307.736 531.533 308.253 564.814 C319.976 566.738 332.320 569.026 343.449 573.224 C345.483 573.991 354.960 577.489 352.114 580.971 C351.579 581.626 347.460 582.035 346.259 582.113 C318.876 583.901 289.391 581.267 261.799 582.582 C259.577 581.425 252.145 583.248 251.077 581.646 C249.758 579.667 252.106 576.935 253.799 575.937 C257.541 573.730 265.513 571.381 269.883 570.100 C277.835 567.769 286.026 566.102 294.211 564.814 L294.698 475.755 C273.332 494.001 255.746 519.280 253.429 548.044 C240.203 538.304 226.146 526.573 216.425 513.222 C189.167 475.784 217.196 421.424 236.788 386.359 C264.050 337.568 298.022 290.662 309.243 234.711 C311.097 234.047 321.226 232.418 321.691 231.065 C322.059 229.993 321.173 225.139 321.269 223.181 C321.326 222.014 322.528 216.304 322.217 215.974 C308.174 219.553 293.596 220.983 279.313 217.840 C280.090 221.615 280.481 225.381 280.236 229.256 C280.157 230.505 278.811 233.826 279.754 234.416 C280.172 234.678 288.102 235.515 289.320 235.579 C294.700 235.865 300.075 235.335 305.430 235.096 C298.361 266.775 282.422 296.547 266.333 324.489 C240.619 369.145 207.604 412.855 199.552 465.026 C199.169 465.307 195.898 462.478 195.353 462.003 C188.075 455.652 174.342 442.810 173.446 433.072 C170.163 397.353 201.112 339.256 221.097 310.036 C231.843 294.326 244.262 280.036 255.710 264.895 C266.668 250.401 276.918 236.630 273.020 217.366 C267.594 190.559 248.418 164.629 238.976 139.474 C235.913 131.314 236.351 127.696 244.480 124.007 C258.381 117.698 282.307 116.745 283.968 97.266 C284.218 94.336 283.604 91.506 283.710 88.615 C284.462 87.569 294.613 87.073 296.570 86.781 C296.259 84.950 297.034 81.679 296.492 80.092 C296.407 79.843 293.511 77.478 292.730 76.393 C288.058 69.902 289.012 60.196 298.206 59.267 C301.508 58.933 307.927 58.812 310.401 61.286 Z M312.423 92.845 C305.089 95.521 297.510 95.125 290.041 93.311 C292.987 110.807 277.821 120.057 263.024 123.659 C262.264 124.543 267.977 143.539 268.256 146.342 C279.691 152.650 291.114 162.565 297.876 173.853 C300.139 177.631 301.781 182.095 303.950 185.969 C309.226 195.393 315.518 204.107 321.950 212.756 C322.109 212.970 322.491 214.507 323.150 213.637 C323.453 213.238 322.989 211.585 322.789 210.971 C321.658 207.495 317.215 200.589 315.134 197.172 C310.971 190.337 306.411 183.610 300.982 177.710 C300.314 176.225 304.568 170.453 305.703 168.906 C312.721 159.338 322.288 151.729 332.499 145.796 L338.582 123.920 C323.594 119.683 308.934 110.888 312.423 92.845 Z M257.385 125.955 C255.294 126.626 246.245 129.532 245.496 131.084 C244.189 133.790 247.200 139.950 248.311 142.732 C250.779 148.916 253.886 154.893 256.691 160.927 C262.113 149.467 259.741 137.818 257.385 125.955 Z M345.532 161.401 L357.674 131.799 C357.672 131.246 357.332 130.957 356.988 130.597 C356.120 129.687 346.050 125.847 344.840 125.937 C344.230 125.983 343.955 126.146 343.757 126.740 C343.004 128.999 342.204 135.693 341.886 138.394 C340.972 146.164 341.276 153.478 344.562 160.749 C344.752 161.169 344.735 162.146 345.532 161.401 Z M360.465 324.176 C362.488 343.757 364.145 361.998 360.795 381.640 C357.876 398.755 350.768 414.886 341.347 429.319 C351.801 436.443 362.681 435.556 373.018 428.843 C380.070 424.263 382.754 420.415 384.948 412.323 C396.008 371.532 368.523 308.903 346.111 274.866 L328.287 250.022 C334.555 275.162 336.859 300.926 332.334 326.594 C319.295 400.555 252.541 449.194 251.775 526.378 C252.507 530.531 252.235 534.784 252.725 538.961 C252.807 539.657 253.103 540.395 253.657 539.649 C255.511 518.167 268.142 496.578 281.655 480.198 C297.218 461.332 317.610 446.990 332.665 427.668 C355.215 398.729 360.921 363.925 359.998 327.907 C359.986 327.441 360.014 326.973 359.998 326.508 C359.977 325.859 359.572 325.021 359.532 324.176 L360.465 324.176 Z" fill="#FFFFFF" fill-rule="evenodd"/>
    <path id="Arc_-_left" d="M204.685 110.568 C205.149 111.007 201.944 119.030 201.297 120.234 C121.800 154.928 68.922 233.295 63.350 319.726 C57.676 407.735 107.607 489.813 180.878 535.244 C181.646 536.113 183.429 543.872 183.253 545.005 C183.167 545.558 182.980 545.846 182.536 546.170 C114.457 507.190 63.254 436.259 55.443 357.054 C45.538 256.626 100.953 157.152 192.712 115.147 C194.242 114.447 204.049 109.965 204.685 110.568 Z" fill="#FFFFFF" fill-rule="evenodd"/>
    <path id="Arc_-_right" d="M487.018 178.502 C573.400 285.782 554.162 440.423 446.495 525.174 C442.846 528.047 416.799 546.631 414.343 546.183 C413.628 546.052 413.779 545.293 413.825 544.770 C413.921 543.684 415.660 536.115 416.098 535.582 C454.555 513.124 485.049 478.095 505.757 438.920 C567.641 321.851 517.509 174.730 398.267 119.636 C396.352 116.774 395.709 112.972 394.980 109.635 C395.551 109.098 401.636 111.852 402.756 112.349 C436.604 127.375 464.005 149.922 487.018 178.502 Z" fill="#FFFFFF" fill-rule="evenodd"/>
    <path id="Gown_-_blush_panel" d="M360.465 324.176 C360.289 322.475 360.358 320.682 359.765 319.041 C359.383 319.037 359.499 323.493 359.532 324.176 C359.572 325.021 359.977 325.859 359.998 326.508 C359.296 326.573 359.296 327.842 359.998 327.907 C360.921 363.925 355.215 398.729 332.665 427.668 C317.610 446.990 297.218 461.332 281.655 480.198 C268.142 496.578 255.511 518.167 253.657 539.649 C253.103 540.395 252.807 539.657 252.725 538.961 C252.235 534.784 252.507 530.531 251.775 526.378 C252.541 449.194 319.295 400.555 332.334 326.594 C336.859 300.926 334.555 275.162 328.287 250.022 L346.111 274.866 C368.523 308.903 396.008 371.532 384.948 412.323 C382.754 420.415 380.070 424.263 373.018 428.843 C362.681 435.556 351.801 436.443 341.347 429.319 C350.768 414.886 357.876 398.755 360.795 381.640 C364.145 361.998 362.488 343.757 360.465 324.176 Z" fill="#FFFFFF" fill-rule="evenodd"/>
    <path id="logotype" d="M-60.640 598.355 L-60.640 679.597 C-60.003 679.604 -59.266 678.742 -58.783 678.309 C-52.183 672.398 -43.400 665.013 -37.736 658.457 C-35.144 655.456 -31.105 649.713 -36.095 646.795 C-37.809 645.793 -40.384 646.493 -39.790 643.613 L-7.956 643.613 C-7.909 643.613 -7.097 642.902 -7.037 643.793 C-7.030 643.893 -7.591 645.527 -7.762 645.661 C-8.021 645.865 -13.000 647.100 -14.093 647.514 C-25.477 651.821 -34.505 663.108 -44.268 670.127 L-44.630 670.875 C-41.029 674.017 -37.969 678.235 -34.965 682.024 C-27.028 692.034 -19.314 704.008 -10.940 713.360 C-7.658 717.025 -4.087 720.505 1.149 720.791 L1.166 722.629 L-26.572 722.629 L-56.389 680.683 C-57.274 680.543 -60.471 683.778 -60.632 684.613 C-60.232 692.495 -61.191 700.919 -60.655 708.733 C-60.083 717.075 -57.520 720.104 -48.941 720.733 L-48.725 722.629 L-90.426 722.629 L-90.406 720.793 C-83.134 720.145 -79.169 718.348 -78.517 710.567 L-78.494 617.813 C-79.011 609.852 -82.400 607.959 -90.196 608.394 L-90.678 607.053 L-60.640 598.355 Z M24.995 699.815 C26.757 719.711 47.602 720.032 55.588 704.329 C57.445 700.677 56.306 699.653 56.253 696.123 C56.057 683.055 56.911 669.770 56.567 656.783 C56.445 652.165 54.713 647.781 49.583 647.305 L49.552 646.069 L74.142 641.387 L74.142 711.315 C74.142 712.061 75.109 714.671 75.630 715.397 C76.161 716.138 77.250 717.010 78.093 717.395 C79.850 718.199 83.512 717.718 81.980 720.238 L56.643 723.186 L56.643 709.646 L52.930 714.293 C38.642 732.020 9.301 726.930 7.481 702.426 C6.913 694.774 7.164 685.030 7.108 677.201 C7.055 669.770 8.242 661.504 7.084 654.225 C6.248 648.971 3.122 647.879 -1.766 647.279 L-1.815 645.840 L24.995 641.944 L24.995 699.815 Z M111.375 597.984 L111.375 679.226 C112.025 679.388 112.119 678.958 112.494 678.672 C118.035 674.447 125.921 666.846 130.932 661.800 C133.967 658.744 142.241 650.969 136.453 647.005 C134.508 645.673 130.835 646.628 132.225 643.613 L164.990 643.613 L164.953 645.432 C149.568 648.604 138.896 661.291 127.020 670.508 C131.162 674.102 134.567 678.976 137.957 683.345 C145.413 692.955 152.429 703.969 160.160 713.159 C163.116 716.673 166.057 719.271 170.514 720.833 L170.576 723.002 L144.590 722.547 L115.634 680.687 C114.953 680.639 111.342 683.559 111.408 684.625 C111.709 692.285 110.894 700.384 111.359 707.992 C111.867 716.301 113.848 720.289 122.864 720.827 L123.112 722.630 L82.308 722.839 L81.961 720.777 C88.926 720.430 92.826 718.212 93.497 710.938 L93.520 617.072 C92.991 609.503 89.590 607.596 82.200 607.947 L81.567 606.363 L111.375 597.984 Z M198.127 597.984 L198.127 677.742 C202.885 673.563 207.874 669.494 212.471 665.139 C215.216 662.538 222.868 655.480 223.656 652.173 C224.718 647.722 222.034 646.628 218.384 645.485 L218.963 643.413 L248.393 643.241 C248.342 643.965 248.649 645.201 248.028 645.663 C247.578 645.998 243.003 647.134 241.808 647.627 C234.350 650.702 225.907 658.493 219.716 663.826 C218.239 665.098 215.238 667.385 214.128 668.645 C213.843 668.968 213.647 669.056 213.764 669.578 L218.015 671.467 C229.523 684.564 238.960 700.814 250.434 713.731 C253.375 717.041 256.806 720.147 261.355 720.843 C262.512 724.279 259.621 722.649 257.531 722.612 C252.690 722.526 247.823 722.640 242.975 722.616 C240.273 722.602 237.163 723.666 234.343 722.529 C224.242 707.681 214.176 692.733 203.157 678.551 L198.124 682.747 C198.681 691.750 197.364 701.629 198.175 710.525 C198.839 717.816 202.162 720.115 209.245 720.826 L209.493 722.631 L172.435 723.002 L172.475 720.811 C178.763 720.115 180.070 715.717 180.621 710.196 L180.643 617.816 C180.223 614.403 179.810 609.612 175.875 608.469 C173.951 607.911 171.070 608.368 169.704 607.940 C169.130 607.760 168.947 607.288 169.116 606.734 C169.341 605.997 176.474 603.834 177.736 603.450 C184.453 601.403 191.389 599.961 198.127 597.984 Z M324.345 694.992 C323.001 705.639 310.653 718.173 301.022 722.206 C288.366 727.505 272.538 724.715 264.839 712.733 C256.070 699.085 262.232 670.259 260.264 653.856 C260.100 652.493 259.225 650.159 258.276 649.160 C256.716 647.518 253.858 648.130 254.348 645.844 L277.432 641.757 L277.417 693.895 C278.006 701.583 279.581 710.555 287.756 713.642 C297.165 717.196 305.846 712.080 307.551 702.372 C306.480 686.979 309.121 669.319 307.586 654.190 C307.272 651.091 305.430 647.695 302.053 647.280 L302.046 645.878 L324.345 641.758 L324.345 694.992 Z M382.722 647.027 L383.917 665.130 L381.863 664.765 C379.418 656.982 373.802 647.709 365.313 645.641 C353.074 642.661 345.997 656.775 355.616 665.319 C367.893 676.224 390.728 678.672 389.889 700.571 C389.058 722.255 364.830 728.393 347.230 722.643 C345.663 722.132 341.374 719.851 340.460 719.734 C339.524 719.614 338.387 720.448 337.351 719.871 L336.634 695.918 C337.067 695.980 337.736 695.775 338.067 695.975 C338.385 696.167 340.070 701.845 340.554 702.956 C343.695 710.170 350.173 718.381 358.214 720.231 C372.542 723.527 381.392 706.483 370.146 696.472 C357.605 685.308 330.696 681.232 337.566 656.972 C342.962 637.919 368.707 637.767 382.722 647.027 Z M451.308 641.016 L451.308 655.113 C455.764 650.198 460.050 645.728 466.379 643.234 C482.611 636.835 498.934 643.559 500.450 661.982 C501.653 676.608 499.608 692.812 500.440 707.621 C500.587 710.230 500.968 714.019 502.118 716.336 C503.958 720.044 507.613 720.208 511.283 720.953 L511.626 722.626 L472.902 722.631 L472.902 720.773 C477.909 720.559 481.614 719.432 482.852 714.179 C482.839 698.493 484.500 680.917 483.324 665.320 C481.765 644.643 459.145 645.950 451.671 661.595 L451.726 711.641 C452.370 718.064 455.805 720.488 462.102 720.778 L462.108 722.631 L423.382 722.631 L423.382 720.773 C431.405 720.624 433.734 716.951 434.199 709.478 C435.230 692.949 433.430 675.325 434.136 658.683 C433.783 655.295 432.199 652.072 428.408 651.769 C426.727 651.636 422.332 653.321 423.428 650.154 C423.906 648.771 448.166 641.855 451.308 641.016 Z M528.380 674.033 C528.279 683.860 529.446 694.840 534.998 703.237 C543.927 716.745 560.594 718.426 572.179 707.075 L573.776 708.400 C565.076 722.717 549.097 728.741 533.122 722.542 C502.805 710.776 503.047 661.031 530.128 645.540 C546.066 636.424 567.954 641.723 572.876 660.674 C574.231 665.890 574.591 667.546 570.275 671.074 C568.716 672.348 565.569 674.033 563.565 674.033 L528.380 674.033 Z M557.049 670.694 L557.049 661.605 C557.049 656.589 553.091 647.571 547.952 645.814 C535.246 641.470 528.243 661.129 528.752 670.694 L557.049 670.694 Z M628.120 646.622 L629.280 665.126 L627.083 665.092 C624.640 655.650 615.329 642.406 604.030 645.721 C597.513 647.633 594.430 654.649 597.307 660.816 C603.578 674.260 633.157 675.287 634.879 696.834 C636.794 720.809 611.921 728.970 592.227 722.637 C590.341 722.030 586.729 719.956 585.438 719.725 C584.228 719.509 583.266 720.388 582.208 719.622 L581.747 719.128 C581.891 713.720 581.768 708.238 581.619 702.786 C581.584 701.509 580.463 696.064 581.851 695.591 L583.094 695.565 C585.309 705.022 591.733 716.455 601.528 719.676 C611.547 722.970 621.580 716.311 620.305 705.419 C618.554 690.466 588.232 687.819 582.727 670.150 C577.004 651.780 592.802 639.746 610.101 641.021 C616.576 641.499 622.287 644.119 628.120 646.622 Z M681.406 643.242 L681.406 647.323 L661.300 647.323 L661.300 702.412 C661.300 703.407 662.433 706.787 662.878 707.888 C665.826 715.178 672.634 717.065 679.551 713.547 C680.734 712.946 684.079 710.209 684.648 710.059 C685.231 709.905 686.139 710.496 686.224 710.991 C686.307 711.480 680.252 717.420 679.368 718.188 C663.895 731.625 645.164 724.196 644.902 703.540 L644.918 647.323 L634.493 647.323 C634.450 646.559 634.394 645.938 634.839 645.256 C635.452 644.317 640.269 640.939 641.572 639.723 C645.844 635.740 649.965 630.638 653.412 625.923 C654.638 624.247 657.117 619.504 658.309 618.528 C658.851 618.085 660.493 617.959 660.928 618.573 L660.928 642.686 L661.487 643.242 L681.406 643.242 Z" fill="#FFFFFF" fill-rule="evenodd"/>
    <path id="tagline" d="M-5.131 750.817 L8.452 750.817 L8.452 752.421 L-3.459 752.421 L-3.459 762.421 L7.087 762.421 L7.087 763.990 L-3.459 763.990 L-3.459 775.048 L-5.131 775.048 Z M21.250 775.048 L31.488 749.759 L31.625 749.759 L41.864 775.048 L39.986 775.048 L31.079 752.421 L32.239 751.772 L22.922 775.048 Z M26.199 765.458 L36.949 765.458 L37.427 767.028 L25.789 767.028 Z M70.497 753.547 C69.792 753.206 68.927 752.887 67.903 752.592 C66.880 752.296 65.856 752.148 64.832 752.148 C63.239 752.148 61.965 752.546 61.010 753.342 C60.054 754.139 59.576 755.140 59.576 756.346 C59.576 757.256 59.849 758.012 60.395 758.615 C60.941 759.218 61.658 759.730 62.545 760.151 C63.433 760.572 64.377 760.976 65.378 761.363 C66.174 761.658 66.965 761.988 67.750 762.352 C68.535 762.716 69.246 763.160 69.883 763.683 C70.520 764.207 71.026 764.855 71.402 765.629 C71.777 766.402 71.965 767.358 71.965 768.495 C71.965 769.838 71.646 771.027 71.009 772.062 C70.372 773.097 69.485 773.899 68.347 774.468 C67.210 775.037 65.890 775.321 64.388 775.321 C63.182 775.321 62.085 775.173 61.095 774.877 C60.105 774.582 59.241 774.235 58.501 773.836 C57.762 773.438 57.176 773.103 56.743 772.830 L57.528 771.465 C58.029 771.829 58.638 772.193 59.354 772.557 C60.071 772.921 60.850 773.228 61.692 773.478 C62.534 773.728 63.376 773.854 64.218 773.854 C65.196 773.854 66.146 773.660 67.067 773.273 C67.989 772.887 68.751 772.301 69.354 771.516 C69.957 770.731 70.258 769.735 70.258 768.530 C70.258 767.369 69.974 766.431 69.405 765.714 C68.836 764.997 68.108 764.411 67.221 763.956 C66.334 763.501 65.389 763.092 64.388 762.728 C63.615 762.432 62.841 762.119 62.068 761.789 C61.294 761.459 60.589 761.061 59.952 760.595 C59.315 760.128 58.808 759.565 58.433 758.905 C58.057 758.245 57.870 757.449 57.870 756.516 C57.870 755.356 58.166 754.343 58.757 753.479 C59.349 752.614 60.151 751.937 61.163 751.448 C62.176 750.959 63.330 750.703 64.627 750.680 C65.765 750.680 66.919 750.828 68.091 751.124 C69.263 751.420 70.281 751.795 71.146 752.250 Z M89.131 750.817 L90.804 750.817 L90.804 775.048 L89.131 775.048 Z M107.902 762.967 C107.902 761.260 108.221 759.662 108.858 758.172 C109.495 756.681 110.382 755.362 111.520 754.213 C112.657 753.064 113.971 752.165 115.461 751.516 C116.952 750.868 118.550 750.544 120.256 750.544 C121.963 750.544 123.567 750.868 125.069 751.516 C126.570 752.165 127.890 753.064 129.027 754.213 C130.165 755.362 131.058 756.681 131.707 758.172 C132.355 759.662 132.679 761.260 132.679 762.967 C132.679 764.673 132.355 766.271 131.707 767.762 C131.058 769.252 130.165 770.566 129.027 771.703 C127.890 772.841 126.570 773.728 125.069 774.365 C123.567 775.003 121.963 775.321 120.256 775.321 C118.550 775.321 116.952 775.014 115.461 774.400 C113.971 773.785 112.657 772.921 111.520 771.806 C110.382 770.691 109.495 769.383 108.858 767.881 C108.221 766.379 107.902 764.741 107.902 762.967 Z M109.608 763.001 C109.608 764.480 109.881 765.867 110.427 767.164 C110.974 768.461 111.736 769.599 112.714 770.577 C113.692 771.556 114.824 772.323 116.110 772.881 C117.395 773.438 118.766 773.717 120.222 773.717 C121.724 773.717 123.123 773.438 124.420 772.881 C125.717 772.323 126.855 771.556 127.833 770.577 C128.811 769.599 129.579 768.461 130.137 767.164 C130.694 765.867 130.973 764.468 130.973 762.967 C130.973 761.488 130.694 760.094 130.137 758.786 C129.579 757.478 128.811 756.329 127.833 755.339 C126.855 754.349 125.717 753.570 124.420 753.001 C123.123 752.432 121.735 752.148 120.256 752.148 C118.755 752.148 117.356 752.438 116.059 753.018 C114.762 753.598 113.630 754.389 112.663 755.390 C111.696 756.391 110.945 757.546 110.410 758.854 C109.876 760.162 109.608 761.545 109.608 763.001 Z M170.050 775.628 L150.938 754.093 L151.382 753.752 L151.416 775.048 L149.778 775.048 L149.778 750.305 L149.880 750.305 L168.992 772.011 L168.548 772.147 L168.514 750.817 L170.118 750.817 L170.118 775.628 Z M210.151 775.048 L210.151 750.817 L216.123 750.817 C218.467 750.817 220.463 751.187 222.113 751.926 C223.762 752.665 225.099 753.638 226.123 754.844 C227.147 756.050 227.897 757.370 228.375 758.803 C228.853 760.236 229.092 761.658 229.092 763.069 C229.092 764.912 228.773 766.567 228.136 768.035 C227.499 769.502 226.629 770.759 225.525 771.806 C224.422 772.852 223.165 773.654 221.754 774.212 C220.344 774.769 218.853 775.048 217.283 775.048 Z M211.823 773.444 L216.840 773.444 C218.296 773.444 219.661 773.205 220.935 772.727 C222.209 772.250 223.330 771.556 224.297 770.645 C225.264 769.735 226.020 768.638 226.566 767.352 C227.112 766.067 227.386 764.605 227.386 762.967 C227.386 761.579 227.152 760.253 226.686 758.991 C226.219 757.728 225.520 756.607 224.587 755.629 C223.654 754.651 222.505 753.877 221.140 753.308 C219.775 752.739 218.182 752.455 216.362 752.455 L211.823 752.455 Z M246.190 750.817 L261.138 750.817 L261.138 752.421 L247.863 752.421 L247.863 762.045 L259.807 762.045 L259.807 763.649 L247.863 763.649 L247.863 773.444 L261.616 773.444 L261.616 775.048 L246.190 775.048 Z M291.035 753.547 C290.330 753.206 289.465 752.887 288.441 752.592 C287.417 752.296 286.394 752.148 285.370 752.148 C283.777 752.148 282.503 752.546 281.547 753.342 C280.592 754.139 280.114 755.140 280.114 756.346 C280.114 757.256 280.387 758.012 280.933 758.615 C281.479 759.218 282.196 759.730 283.083 760.151 C283.970 760.572 284.915 760.976 285.916 761.363 C286.712 761.658 287.503 761.988 288.288 762.352 C289.073 762.716 289.784 763.160 290.421 763.683 C291.058 764.207 291.564 764.855 291.939 765.629 C292.315 766.402 292.502 767.358 292.502 768.495 C292.502 769.838 292.184 771.027 291.547 772.062 C290.910 773.097 290.022 773.899 288.885 774.468 C287.747 775.037 286.428 775.321 284.926 775.321 C283.720 775.321 282.622 775.173 281.633 774.877 C280.643 774.582 279.778 774.235 279.039 773.836 C278.299 773.438 277.714 773.103 277.281 772.830 L278.066 771.465 C278.567 771.829 279.175 772.193 279.892 772.557 C280.609 772.921 281.388 773.228 282.230 773.478 C283.072 773.728 283.913 773.854 284.755 773.854 C285.734 773.854 286.684 773.660 287.605 773.273 C288.527 772.887 289.289 772.301 289.892 771.516 C290.495 770.731 290.796 769.735 290.796 768.530 C290.796 767.369 290.512 766.431 289.943 765.714 C289.374 764.997 288.646 764.411 287.759 763.956 C286.871 763.501 285.927 763.092 284.926 762.728 C284.152 762.432 283.379 762.119 282.605 761.789 C281.832 761.459 281.126 761.061 280.489 760.595 C279.852 760.128 279.346 759.565 278.971 758.905 C278.595 758.245 278.407 757.449 278.407 756.516 C278.407 755.356 278.703 754.343 279.295 753.479 C279.886 752.614 280.688 751.937 281.701 751.448 C282.713 750.959 283.868 750.703 285.165 750.680 C286.302 750.680 287.457 750.828 288.629 751.124 C289.801 751.420 290.819 751.795 291.683 752.250 Z M309.669 750.817 L311.341 750.817 L311.341 775.048 L309.669 775.048 Z M348.268 773.342 C347.859 773.615 347.364 773.871 346.784 774.110 C346.204 774.348 345.584 774.559 344.924 774.741 C344.264 774.923 343.587 775.065 342.893 775.167 C342.199 775.270 341.545 775.321 340.931 775.321 C339.019 775.321 337.296 775.008 335.760 774.383 C334.224 773.757 332.911 772.892 331.818 771.789 C330.726 770.685 329.890 769.400 329.310 767.932 C328.730 766.465 328.440 764.878 328.440 763.171 C328.440 761.328 328.764 759.633 329.412 758.086 C330.061 756.539 330.954 755.202 332.091 754.076 C333.229 752.950 334.549 752.080 336.050 751.465 C337.552 750.851 339.145 750.544 340.828 750.544 C342.102 750.544 343.303 750.703 344.429 751.022 C345.555 751.340 346.573 751.772 347.483 752.319 L346.869 753.820 C346.346 753.502 345.754 753.223 345.094 752.984 C344.435 752.745 343.758 752.557 343.064 752.421 C342.370 752.284 341.682 752.216 340.999 752.216 C339.452 752.216 338.018 752.489 336.699 753.035 C335.379 753.581 334.230 754.343 333.252 755.322 C332.273 756.300 331.511 757.449 330.965 758.769 C330.419 760.088 330.146 761.522 330.146 763.069 C330.146 764.571 330.402 765.964 330.914 767.250 C331.426 768.535 332.154 769.661 333.098 770.628 C334.042 771.595 335.174 772.346 336.494 772.881 C337.814 773.416 339.281 773.683 340.897 773.683 C341.852 773.683 342.853 773.569 343.900 773.342 C344.946 773.114 345.845 772.784 346.596 772.352 L346.596 765.629 L341.135 765.629 L341.135 764.025 L348.268 764.025 Z M386.458 775.628 L367.346 754.093 L367.790 753.752 L367.824 775.048 L366.186 775.048 L366.186 750.305 L366.288 750.305 L385.400 772.011 L384.956 772.147 L384.922 750.817 L386.526 750.817 L386.526 775.628 Z M438.674 753.547 C437.969 753.206 437.105 752.887 436.081 752.592 C435.057 752.296 434.033 752.148 433.009 752.148 C431.416 752.148 430.142 752.546 429.187 753.342 C428.231 754.139 427.753 755.140 427.753 756.346 C427.753 757.256 428.026 758.012 428.572 758.615 C429.118 759.218 429.835 759.730 430.723 760.151 C431.610 760.572 432.554 760.976 433.555 761.363 C434.351 761.658 435.142 761.988 435.927 762.352 C436.712 762.716 437.423 763.160 438.060 763.683 C438.697 764.207 439.203 764.855 439.579 765.629 C439.954 766.402 440.142 767.358 440.142 768.495 C440.142 769.838 439.823 771.027 439.186 772.062 C438.549 773.097 437.662 773.899 436.524 774.468 C435.387 775.037 434.067 775.321 432.565 775.321 C431.360 775.321 430.262 775.173 429.272 774.877 C428.282 774.582 427.418 774.235 426.678 773.836 C425.939 773.438 425.353 773.103 424.921 772.830 L425.706 771.465 C426.206 771.829 426.815 772.193 427.531 772.557 C428.248 772.921 429.027 773.228 429.869 773.478 C430.711 773.728 431.553 773.854 432.395 773.854 C433.373 773.854 434.323 773.660 435.245 773.273 C436.166 772.887 436.928 772.301 437.531 771.516 C438.134 770.731 438.436 769.735 438.436 768.530 C438.436 767.369 438.151 766.431 437.582 765.714 C437.014 764.997 436.285 764.411 435.398 763.956 C434.511 763.501 433.567 763.092 432.565 762.728 C431.792 762.432 431.018 762.119 430.245 761.789 C429.471 761.459 428.766 761.061 428.129 760.595 C427.492 760.128 426.985 759.565 426.610 758.905 C426.235 758.245 426.047 757.449 426.047 756.516 C426.047 755.356 426.343 754.343 426.934 753.479 C427.526 752.614 428.328 751.937 429.340 751.448 C430.353 750.959 431.507 750.703 432.804 750.680 C433.942 750.680 435.097 750.828 436.268 751.124 C437.440 751.420 438.458 751.795 439.323 752.250 Z M455.022 750.817 L470.892 750.817 L470.892 752.421 L463.759 752.421 L463.759 775.048 L462.087 775.048 L462.087 752.421 L455.022 752.421 Z M489.116 766.857 C489.116 768.268 489.406 769.485 489.986 770.509 C490.567 771.533 491.357 772.323 492.358 772.881 C493.360 773.438 494.497 773.717 495.771 773.717 C497.068 773.717 498.223 773.438 499.235 772.881 C500.248 772.323 501.044 771.533 501.624 770.509 C502.204 769.485 502.495 768.268 502.495 766.857 L502.495 750.817 L504.133 750.817 L504.133 766.960 C504.133 768.712 503.763 770.213 503.024 771.465 C502.284 772.716 501.283 773.672 500.020 774.331 C498.757 774.991 497.341 775.321 495.771 775.321 L495.771 775.321 C494.201 775.321 492.785 774.991 491.522 774.331 C490.260 773.672 489.264 772.716 488.536 771.465 C487.808 770.213 487.444 768.712 487.444 766.960 L487.444 750.817 L489.116 750.817 Z M522.630 775.048 L522.630 750.817 L528.603 750.817 C530.946 750.817 532.943 751.187 534.592 751.926 C536.242 752.665 537.579 753.638 538.602 754.844 C539.626 756.050 540.377 757.370 540.855 758.803 C541.333 760.236 541.572 761.658 541.572 763.069 C541.572 764.912 541.253 766.567 540.616 768.035 C539.979 769.502 539.109 770.759 538.005 771.806 C536.902 772.852 535.645 773.654 534.234 774.212 C532.823 774.769 531.333 775.048 529.763 775.048 Z M524.303 773.444 L529.319 773.444 C530.776 773.444 532.141 773.205 533.415 772.727 C534.689 772.250 535.810 771.556 536.777 770.645 C537.743 769.735 538.500 768.638 539.046 767.352 C539.592 766.067 539.865 764.605 539.865 762.967 C539.865 761.579 539.632 760.253 539.165 758.991 C538.699 757.728 537.999 756.607 537.067 755.629 C536.134 754.651 534.985 753.877 533.620 753.308 C532.255 752.739 530.662 752.455 528.842 752.455 L524.303 752.455 Z M558.670 750.817 L560.342 750.817 L560.342 775.048 L558.670 775.048 Z M577.441 762.967 C577.441 761.260 577.759 759.662 578.396 758.172 C579.033 756.681 579.920 755.362 581.058 754.213 C582.196 753.064 583.510 752.165 585.000 751.516 C586.490 750.868 588.089 750.544 589.795 750.544 C591.501 750.544 593.105 750.868 594.607 751.516 C596.109 752.165 597.428 753.064 598.566 754.213 C599.704 755.362 600.597 756.681 601.245 758.172 C601.894 759.662 602.218 761.260 602.218 762.967 C602.218 764.673 601.894 766.271 601.245 767.762 C600.597 769.252 599.704 770.566 598.566 771.703 C597.428 772.841 596.109 773.728 594.607 774.365 C593.105 775.003 591.501 775.321 589.795 775.321 C588.089 775.321 586.490 775.014 585.000 774.400 C583.510 773.785 582.196 772.921 581.058 771.806 C579.920 770.691 579.033 769.383 578.396 767.881 C577.759 766.379 577.441 764.741 577.441 762.967 Z M579.147 763.001 C579.147 764.480 579.420 765.867 579.966 767.164 C580.512 768.461 581.274 769.599 582.253 770.577 C583.231 771.556 584.363 772.323 585.648 772.881 C586.934 773.438 588.305 773.717 589.761 773.717 C591.263 773.717 592.662 773.438 593.959 772.881 C595.256 772.323 596.393 771.556 597.371 770.577 C598.350 769.599 599.118 768.461 599.675 767.164 C600.233 765.867 600.511 764.468 600.511 762.967 C600.511 761.488 600.233 760.094 599.675 758.786 C599.118 757.478 598.350 756.329 597.371 755.339 C596.393 754.349 595.256 753.570 593.959 753.001 C592.662 752.432 591.274 752.148 589.795 752.148 C588.293 752.148 586.894 752.438 585.597 753.018 C584.300 753.598 583.168 754.389 582.201 755.390 C581.234 756.391 580.484 757.546 579.949 758.854 C579.414 760.162 579.147 761.545 579.147 763.001 Z" fill="#FFFFFF" fill-rule="evenodd"/>
  </g>
</svg>
